<?xml version="1.0" encoding="UTF-8" standalone="no"?>
<!-- Created with Inkscape (http://www.inkscape.org/) -->

<svg
   xmlns:dc="http://purl.org/dc/elements/1.1/"
   xmlns:cc="http://creativecommons.org/ns#"
   xmlns:rdf="http://www.w3.org/1999/02/22-rdf-syntax-ns#"
   xmlns:svg="http://www.w3.org/2000/svg"
   xmlns="http://www.w3.org/2000/svg"
   xmlns:sodipodi="http://sodipodi.sourceforge.net/DTD/sodipodi-0.dtd"
   xmlns:inkscape="http://www.inkscape.org/namespaces/inkscape"
   version="1.1"
   inkscape:version="0.91 r13725"
   width="512"
   height="512"
   viewBox="0 0 512 512"
   sodipodi:docname="tiberius.svg">
  <metadata
     id="metadata8">
    <rdf:RDF>
      <cc:Work
         rdf:about="">
        <dc:format>image/svg+xml</dc:format>
        <dc:type
           rdf:resource="http://purl.org/dc/dcmitype/StillImage" />
        <dc:title></dc:title>
      </cc:Work>
    </rdf:RDF>
  </metadata>
  <defs />
  <sodipodi:namedview
     pagecolor="#ffffff"
     bordercolor="#666666"
     borderopacity="1"
     objecttolerance="10"
     gridtolerance="10"
     guidetolerance="10"
     inkscape:pageopacity="0"
     inkscape:pageshadow="2"
     inkscape:window-width="1600"
     inkscape:window-height="840"
     id="namedview4"
     showgrid="false"
     inkscape:zoom="1.3"
     inkscape:cx="340.51966"
     inkscape:cy="274.045"
     inkscape:window-x="0"
     inkscape:window-y="0"
     inkscape:window-maximized="1"
     inkscape:current-layer="g3338" />
  <g>
    <path
       style="fill:#c9c9c9"
       d="m 146.34222,320.90119 c -38.82888,-9.19627 -44.36601,-21.87546 -62.141176,-49.60455 -7.20011,-32.01739 -13.03765,-71.61105 -17.18715,-73.8895 -21.07538,-10.71439 -31.5544,-23.27717 -49.35657,-42.49312 -7.0785,-7.87305 -9.6353468,-16.79371 -11.4375468,-28.00599 -1.6715,-10.39962 -2.86848,-7.30074 0.62802,-31.836962 4.6732268,-29.846419 9.7659868,-32.802308 12.6784168,-5.730173 4.9863,23.669925 10.3624,32.399245 32.2987,45.482345 7.0866,4.2265 22.81565,13.02263 23.75478,13.20031 56.987926,10.78174 122.982316,14.22482 141.048506,1.10121 0,0 23.50044,-13.63578 32.21339,-19.67513 8.71296,-6.03934 26.3361,-40.837001 30.62218,-55.876361 5.45851,16.229567 9.42089,44.628261 9.93797,57.968541 -23.16477,35.61955 -38.67504,50.16908 -63.73591,65.33753 -4.08566,87.01099 -33.07274,113.30804 -79.32361,124.02185 z M 116.62254,216.3118 c 33.74008,-2.04527 39.28133,-59.20369 2.23649,-61.23216 -39.008916,-0.2293 -41.699166,60.31651 -2.23649,61.23216 z m 62.8818,-1.66968 c 33.49411,-0.33592 34.03953,-55.81894 -2.349,-56.32788 -36.0162,-0.37554 -40.07017,54.01554 2.349,56.32788 z"
       sodipodi:nodetypes="ccccsccssczcccccccccc" />
    <path
       style="fill:#806237"
       d="m 222.0052,410.7681 c -3.83849,-7.93856 -7.16947,-9.53075 -19.97306,-13.58324 -12.80358,-4.05249 -15.35763,-5.7973 -20.03672,-7.42129 0.79705,-8.8 -0.29375,-15.31626 -0.0251,-18.44384 l 1.10935,-12.91445 -8.78973,-7.03752 c -8.52477,-6.82537 -14.18099,-12.39304 -19.59628,-20.38972 -3.73685,-5.51817 -5.83713,-8.28974 -8.70891,-8.28974 -5.0156,0 -13.58768,-1.6308 -20.23563,-4.96021 -7.71218,-3.8624 -13.37235,-8.95361 -24.72848,-21.53496 C 93.986206,288.3997 91.270855,284.72727 87.702865,277.46749 77.493555,256.6946 72.509586,237.61888 70.385894,216.64855 L 68.821496,201.20096 50.660883,186.14069 C 11.368938,153.55661 12.469171,151.89287 7.1484415,134.76657 c -3.64154,-11.72133 -3.59276,-12.8906 1.05096,-40.997339 3.6145795,-21.877685 2.0838075,-22.106832 6.2189075,-22.583311 3.94803,-0.454924 3.57527,0.248287 6.24169,13.653068 5.13675,25.823852 14.045497,37.950282 39.498927,53.334092 7.96257,4.8125 19.8348,11.53845 20.27162,11.53845 0.43682,0 3.377365,-6.23051 7.004625,-9.73234 6.96105,-6.72032 13.819839,-9.53155 23.655839,-12.56686 5.22754,-1.61317 8.73982,-1.83541 35.98618,-1.83541 20.64386,1.25146 35.38742,-0.64766 50.98685,6.0057 19.53821,-8.70641 33.27438,-11.90497 49.11237,-12.67384 12.02089,-0.58804 14.45073,-4.12436 16.39771,-6.85864 3.90179,-5.47956 7.30638,-13.854844 10.31067,-27.088173 1.78779,-4.751219 3.70418,-8.216057 7.0728,-11.432206 1.41723,4.683329 5.17922,9.435235 8.87913,36.128689 1.34314,9.69019 0.41315,16.89121 1.61823,17.26473 0.87108,0.26999 17.48378,4.42566 46.08378,11.82028 26.79862,6.55291 57.42786,13.60319 82.69142,25.02969 4.58418,3.03367 7.97,4.87645 31.13113,-4.21974 20.82848,-8.18007 26.92273,-12.51554 32.94545,-23.62319 3.39528,-6.26187 9.76104,-19.78315 11.50251,-19.94281 1.74146,-0.15967 4.3568,1.57741 5.56324,13.83322 -1.4359,8.84918 -4.07945,17.80767 -9.63242,23.60299 -2.80044,2.92265 -9.48921,9.33531 -20.92569,15.99342 -8.12638,5.04847 -28.0278,9.52151 -24.14637,16.59732 4.12517,6.46694 12.13964,29.67919 13.11356,42.4293 0.74464,9.20614 -2.1479,42.1854 -5.00862,53.37073 -10.03879,23.34905 -32.80646,54.61838 -47.79503,67.69866 0.29004,13.79502 0.10324,19.22034 0.91449,30.49534 0.81125,11.27501 0.99746,18.48671 -0.59851,25.95271 -6.11563,5.37199 -57.57423,6.71946 -57.66611,-7.49164 -4.68133,-0.5919 -29.92485,-5.678 -35.79047,-7.91311 0.95459,-3.53814 0.41975,-10.50896 -1.30225,-12.17974 -1.72201,-1.67078 -32.74949,-0.755 -34.57379,0.28098 -1.8243,1.03598 -0.73061,13.81057 0.37508,26.59191 -9.64868,6.62333 -42.58095,8.44479 -56.33115,5.5186 z m -60.28,-92.67105 c 8.48065,-2.63947 16.3991,-6.69487 25.99324,-16.52417 9.53072,-9.76431 9.53163,-12.66843 -0.0148,-23.09129 -12.2876,-13.4157 -26.85031,-20.95164 -42.43641,-20.10188 -10.7143,0.58415 -20.9612,4.28741 -29.7583,10.91147 -6.88166,5.18178 -15.820355,17.10479 -15.820355,19.93349 0,0.91604 4.073485,7.47837 8.885985,12.25615 8.92086,8.85649 17.57526,15.21471 25.1397,16.99054 6.8977,1.6193 21.47288,1.66056 28.01094,-0.37431 z M 129.22844,211.14427 c 21.34191,-7.52986 24.7312,-41.72223 4.44737,-51.83009 -9.16128,-4.56525 -28.27891,-2.60635 -36.084018,4.26398 -6.571419,5.7844 -9.926766,12.33998 -9.930786,20.83398 -0.004,7.77154 2.107479,14.48309 7.349799,20.05496 6.970775,7.409 24.844995,9.98403 34.217635,6.67717 z m 60.89487,0.0833 c 4.65951,-2.24584 10.47199,-9.21819 12.77388,-13.66956 0.91758,-1.77439 1.3365,-4.55879 1.59573,-8.18195 0.78007,-10.90242 -3.76701,-23.94962 -13.80533,-28.86092 -4.80542,-2.35107 -10.14849,-4.25378 -16.21025,-3.82006 -10.84621,0.77604 -22.34732,8.68866 -26.9404,19.7138 -4.61239,11.07147 5.4311,29.52945 17.83155,35.28694 5.51487,2.56054 18.90109,2.35319 24.75482,-0.46825 z M 69.566028,178.6919 c 0.4241,-7.49273 1.853019,-11.44321 3.363729,-15.56012 3.63102,-9.8951 3.368077,-12.27173 -12.345733,-21.75715 -7.75059,-4.67852 -15.209812,-10.40034 -17.240872,-12.05034 -9.41504,-7.64865 -21.493885,-27.2723 -24.658705,-39.72566 -2.69753,-10.614638 -7.557671,-4.943602 -10.4938314,14.88667 -2.7210803,18.37765 -0.7700603,26.06999 5.3265804,38.25071 3.21402,6.42142 6.808891,11.27739 13.505841,17.32971 18.19407,16.44277 39.072956,33.77796 40.015696,33.50549 0.55,-0.15897 2.187355,-8.87335 2.527295,-14.87931 z M 275.85045,152.33676 c 4.51438,-5.45009 8.87214,-12.0667 10.77981,-20.85744 1.5484,-7.13522 0.94487,-12.69936 -1.20825,-27.13362 -3.13329,-21.00532 -7.6503,-24.643713 -10.40751,-13.634162 -3.05489,12.198202 -14.65778,29.632662 -24.11539,38.135872 -11.68637,7.96385 -29.29334,16.22219 -35.16765,22.05936 1.90243,9.15881 7.30298,38.38943 12.19635,41.68938 11.36206,-1.85593 39.18929,-30.07684 47.92264,-40.25939 z"
       sodipodi:nodetypes="czcscssssssscssssssssscccsccssccsszcscccccsccczzccsssssssssssscsssssssssssssssssscscssscccc" />
    <path
       style="fill:#323232"
       d="m 182.41641,389.76923 c 18.10663,6.87982 33.80678,8.42336 37.24222,15.25639 13.31428,9.73577 48.3949,9.67004 53.50457,4.31094 5.10967,-5.35911 2.02689,-22.04469 4.01585,-33.52804 12.37358,-0.90643 29.17735,-2.59998 36.93546,-2.16506 -0.12651,6.97339 -2.10583,7.45973 3.80798,18.96119 13.60611,2.6553 20.07913,4.51871 32.61796,6.8031 8.42916,11.1359 35.31215,12.41125 55.89887,7.26378 0.83111,-11.60861 4.54094,6.37095 4.0243,20.51849 -13.11792,12.39791 -42.98601,12.61971 -57.68136,3.70474 -4.27947,-2.59616 -5.87827,-7.67129 -12.16575,-8.31546 -9.98493,-2.5588 -19.95442,-2.44506 -27.76244,-10.04996 l -1.6232,-12.63005 c -0.93427,-7.26952 0.72057,-10.64709 0.68116,-12.57237 l -0.19567,-9.55769 -16.01923,-0.80393 c -7.69272,-0.38606 -16.06889,1.62712 -16.48214,2.01291 -0.41325,0.3858 -0.93174,11.45022 0.17395,24.23156 1.10568,12.78135 2.5511,24.06304 2.21483,25.40284 -0.77371,3.08271 -6.12055,7.58442 -11.0464,9.69359 -8.52126,3.64867 -21.88132,5.12099 -32.33746,3.37048 -12.30325,-2.05975 -16.98207,-2.74894 -21.28132,-9.55939 -2.28988,-3.6274 -5.29285,-6.74474 -13.71788,-7.872 -10.35479,-1.38546 -17.29873,-2.49884 -21.42701,-7.20069"
       sodipodi:nodetypes="cccccccccsccsscssssssssc" />
    <path
       style="fill:#050404"
       d="m 236.5281,444.00182 c -11.53368,-2.08661 -19.23413,-6.54475 -22.55783,-13.05975 -1.7948,-3.51809 -2.41224,-3.94394 -5.74077,-3.95943 -10.71606,-0.0499 -25.31988,-5.49183 -29.14191,-10.85938 -2.53915,-3.56591 -2.62417,-8.05455 -0.58003,-30.62326 0.79705,-8.8 1.45887,-18.55686 1.47072,-21.68191 0.0201,-5.2934 -0.20068,-5.83546 -3.22846,-7.92772 -7.71699,-5.3326 -16.19419,-13.66809 -22.69049,-22.3112 l -6.97943,-9.28589 -5.79004,-0.6096 c -7.7632,-0.81734 -16.6555,-3.98887 -23.02313,-8.21144 -2.8782,-1.90862 -10.19387,-8.53317 -16.25703,-14.72123 C 92.36006,290.90261 90.29829,288.16459 85.47114,278.788 79.49917,267.18762 73.12415,249.23682 70.45304,236.5 69.53029,232.1 68.48833,222.44214 68.13757,215.0381 l -0.63775,-13.4619 -25.5,-22.13697 C 22.5628,162.56564 16.06932,156.66011 12.21953,150.91752 8.3697402,145.17493 3.7352267,130.66497 2.9845105,125.69838 2.2337943,120.73179 2.5383672,119.33317 2.8478671,115.89572 3.157367,112.45827 4.0115205,106.31736 5.8342405,94.701048 9.6273405,70.527341 10.72101,67 14.42312,67 c 3.46774,0 4.80168,2.992637 7.99547,17.937412 1.46188,6.840577 3.99537,15.239708 5.62998,18.664738 3.64977,7.6474 10.7005,17.16369 16.2747,21.96577 C 48.30529,128.99837 76.05335,146 77.6701,146 c 0.42445,0 3.25978,-2.44906 6.30073,-5.44235 6.72038,-6.61506 15.3355,-11.90935 24.02899,-14.76665 5.8338,-1.9174 9.30616,-2.17975 33.87937,-2.5598 29.99057,-0.46383 39.76176,0.38782 49.40469,4.3061 l 5.8013,2.35727 8.70732,-4.44561 c 11.93349,-6.09276 25.45577,-9.41416 41.33423,-10.15269 l 12.6269,-0.5873 3.08074,-5.10449 c 4.57101,-7.5737 5.90747,-11.319974 9.11819,-25.559579 1.6035,-7.111564 3.41095,-13.855943 4.01654,-14.987509 1.27573,-2.383717 5.21969,-2.739551 6.97132,-0.628969 1.3725,1.653767 3.89112,15.179478 7.1566,38.432957 2.01441,14.34464 2.55063,16.47104 4.35021,17.25093 1.12892,0.48925 26.43003,7.16875 56.22468,14.84334 53.55367,13.79449 62.21936,16.55771 72.38604,23.08165 2.53933,1.62949 5.16474,2.9627 5.83424,2.9627 2.30285,0 37.61134,-14.13305 41.26147,-16.51587 5.59962,-3.65545 10.25212,-8.90333 13.96858,-15.75617 3.3514,-6.17969 3.3802,-6.34527 3.71514,-21.36228 l 0.33756,-15.134313 -7.08756,-7.775115 c -7.39181,-8.108886 -8.8053,-11.456275 -4.83756,-11.456223 1.3728,1.8e-5 3.33875,1.36455 5.04263,3.5 1.53595,1.924984 3.67345,3.499971 4.75,3.499971 1.64507,0 1.95737,-0.698448 1.95737,-4.377555 0,-8.111893 4.73719,-8.54965 6.73579,-0.622445 1.26741,5.026995 4.04907,5.029086 7.57909,0.0057 3.1114,-4.427665 6.6851,-5.44091 6.6851,-1.89539 0,1.16067 -2.3011,5.274113 -5.1137,9.140985 -5.93751,8.16339 -5.91182,7.628267 -1.3801,28.748705 2.429,11.32079 2.576,13.16036 1.5579,19.5 -2.7013,16.8213 -9.62885,24.43518 -35.93951,39.5 -10.08602,5.775 -18.57207,11.08537 -18.85788,11.80081 -0.28582,0.71545 1.55673,5.44045 4.09456,10.5 5.31856,10.60341 8.40401,21.65796 9.25121,33.14527 0.70071,9.50096 -2.70131,41.67141 -5.60899,53.04037 -5.63845,22.0461 -20.16067,44.96149 -38.57189,60.86465 -4.36237,3.76811 -8.21296,7.36811 -8.55686,8 -0.58512,1.0751 1.6271,34.64075 4.1168,62.4639 1.22167,13.65249 0.96434,15.41317 -2.85386,19.52658 -5.86383,6.31719 -15.52373,9.15842 -31.13766,9.15842 -17.82581,0 -30.16417,-4.80728 -34.2542,-13.34614 -1.13289,-2.36516 -2.03128,-2.73562 -8.25849,-3.40544 -11.26455,-1.21164 -19.87126,-4.2425 -24.4699,-8.61708 -3.82054,-3.63439 -4.01527,-4.11103 -3.97382,-9.7265 0.024,-3.24766 0.43503,-10.62984 0.91345,-16.40484 0.57736,-6.96919 0.52514,-10.91598 -0.15529,-11.73706 -1.32251,-1.59587 -27.68525,-0.58929 -29.53344,1.12765 -0.94698,0.87973 -1.00808,3.68289 -0.2643,12.12682 3.22868,36.65458 3.20943,36.16917 1.56118,39.35652 -3.75213,7.25582 -15.15848,11.98859 -30.42828,12.62543 -5.3003,0.22105 -11.87418,-0.003 -14.60863,-0.49754 z m 29.21415,-8.97922 c 3.16666,-1.10015 6.80643,-3.19767 8.08838,-4.66115 2.09888,-2.3961 2.26294,-3.2679 1.64876,-8.76116 -0.37512,-3.35516 -1.07156,-6.51286 -1.54764,-7.01712 -0.51987,-0.55065 -2.3766,-0.25686 -4.64876,0.73556 -9.59366,4.19027 -25.2159,4.86149 -36.78317,1.58042 -11.28459,-3.2009 -10.84297,-3.35001 -11.76649,3.97289 -0.64791,5.13744 -0.4937,6.84501 0.79588,8.81316 1.87858,2.86707 8.69704,6.00025 15.87431,7.29445 7.47266,1.34747 21.64402,0.36881 28.33873,-1.95705 z m 132.34286,-1.93152 c 3.07191,-1.16134 6.59959,-3.1912 7.83929,-4.5108 2.04932,-2.1814 2.18977,-2.99898 1.54672,-9.00367 -0.389,-3.63243 -1.03425,-6.8065 -1.43388,-7.05349 -0.39964,-0.24699 -3.15905,0.50446 -6.13202,1.66989 -4.07282,1.59657 -8.36372,2.23103 -17.4054,2.5736 -11.01292,0.41724 -12.65024,0.2362 -19.90503,-2.20096 -4.34776,-1.46058 -8.22731,-2.29786 -8.62123,-1.86062 -0.39391,0.43723 -0.98746,3.56164 -1.31899,6.94313 -0.50689,5.17001 -0.29171,6.54365 1.35251,8.63393 2.06995,2.63153 7.86534,5.33791 14.49274,6.76795 6.91094,1.49122 23.33583,0.40366 29.58529,-1.95896 z M 211.96464,418.06574 c 0.56935,-1.06384 1.03518,-5.10527 1.03518,-8.98095 0,-7.96069 0.61241,-7.45015 -10.22935,-8.52788 -3.15114,-0.31324 -8.24469,-1.51064 -11.319,-2.66088 -3.07431,-1.15025 -5.88889,-1.79213 -6.25462,-1.4264 -0.36573,0.36573 -0.83066,3.9463 -1.03318,7.95681 -0.35703,7.07021 -0.28153,7.35161 2.48396,9.25811 3.68172,2.53813 7.74462,4.12627 13.35219,5.21923 7.72799,1.50625 10.82633,1.28923 11.96482,-0.83804 z m 132,-1 c 0.56935,-1.06384 1.03518,-5.10527 1.03518,-8.98095 0,-7.96069 0.61241,-7.45015 -10.22935,-8.52788 -3.15114,-0.31324 -8.24469,-1.51064 -11.319,-2.66088 -3.07431,-1.15025 -5.88889,-1.79213 -6.25462,-1.4264 -0.36573,0.36573 -0.83066,3.9463 -1.03318,7.95681 -0.36815,7.29044 -0.36758,7.29231 2.98114,9.6768 3.73057,2.6564 14.36575,5.7506 20.06983,5.83911 2.68795,0.0417 4.00096,-0.47702 4.75,-1.87661 z m -81.19186,-7.68847 c 2.90012,-0.79557 6.68579,-2.70886 8.4126,-4.25176 l 3.13964,-2.80527 -2.21171,-33.41012 c -1.21643,-18.37557 -2.42447,-34.42777 -2.68452,-35.67157 -0.58151,-2.78131 3.81208,-5.3975 5.77239,-3.43719 0.67817,0.67817 1.71857,9.23149 2.545,20.92287 1.10746,15.66695 1.72618,20.02956 2.97792,20.99727 3.29739,2.54918 62.56053,-1.97909 66.75126,-5.10043 1.15707,-0.86181 1.79645,-5.39932 2.76481,-19.62107 l 1.25965,-18.5 3.25,-0.31336 c 3.21166,-0.30966 3.2501,-0.26248 3.25866,4 0.005,2.37235 -0.93518,17.96108 -2.08877,34.64163 -1.15358,16.68054 -1.82412,31.41719 -1.49008,32.7481 1.66397,6.62976 18.74843,11.67938 32.6566,9.65225 8.2553,-1.20323 14.16271,-3.63266 17.3187,-7.12235 1.98604,-2.19603 1.88111,-4.94403 -2.69599,-70.60627 -0.18688,-2.68093 0.12265,-3.03229 2.91023,-3.30361 3.48231,-0.33895 4.3418,1.22506 4.367,7.94662 0.008,2.07206 0.57919,3.86003 1.32514,4.14628 3.41389,1.31003 21.69585,-18.92605 29.62779,-32.79466 9.25299,-16.17839 12.4846,-28.1869 15.52283,-57.68209 1.25386,-12.17251 1.38673,-17.5153 0.59301,-23.84529 -3.39816,-27.10087 -21.55762,-52.34737 -45.77003,-63.63258 -4.93617,-2.30071 -24.323,-7.79521 -61.38223,-17.3966 -29.79203,-7.71858 -54.87381,-13.89773 -55.73731,-13.73144 -0.91699,0.1766 -2.74375,3.37808 -4.39202,7.69721 -4.87178,12.76601 -8.52662,17.05469 -32.27353,37.87059 -12.1,10.60653 -23.6875,20.78193 -25.75,22.61199 l -3.75,3.32739 0,10.76476 c 0,24.95605 -7.2545,52.77475 -18.1643,69.65433 -5.22417,8.08282 -24.69544,27.96545 -32.16911,32.84875 -3.22435,2.10679 -8.96838,4.82922 -12.76452,6.04984 -4.79705,1.54246 -6.90112,2.71479 -6.89896,3.84391 0.005,2.6773 12.00192,16.10816 19.45265,21.77795 3.82566,2.91123 10.16378,6.85743 14.08469,8.76936 9.00566,4.39135 24.09724,8.3396 25.71048,6.72636 0.64037,-0.64037 1.58576,-8.0088 2.18827,-17.05555 0.58344,-8.76044 1.37734,-16.24435 1.76423,-16.6309 0.38689,-0.38655 1.84939,-0.4152 3.25,-0.0637 3.18907,0.8004 3.17313,-0.6551 0.43169,39.42628 -2.45021,35.82347 -2.615,34.69206 5.64105,38.73137 8.70427,4.2586 21.7545,4.97326 33.24679,1.82066 z m -48.77296,-16.35596 c 1.17358,-0.74176 1.5,-3.17123 1.5,-11.16426 l 0,-10.21619 -5.5,-1.32955 c -3.025,-0.73125 -9.25671,-2.51797 -13.84824,-3.97049 -6.39236,-2.0222 -8.52744,-2.35099 -9.11311,-1.40336 -0.42067,0.68067 -1.0318,4.91069 -1.35806,9.40006 -0.70502,9.70102 0.35458,11.87348 7.55294,15.48559 6.68544,3.35472 17.8085,5.06776 20.76647,3.1982 z m 131.89363,-0.93441 c 0.9101,-0.57629 1.56248,-3.51363 1.88031,-8.46606 0.39985,-6.23056 0.21028,-7.68967 -1.06253,-8.17809 -2.56109,-0.98278 -27.05234,2.529 -28.6648,4.11022 -1.26955,1.24496 -1.19308,1.77446 0.60453,4.18613 2.80469,3.76276 7.73764,6.48368 14.32999,7.90413 6.77209,1.45918 11.07527,1.60704 12.9125,0.44367 z M 161.29442,315.99073 c 8.87852,-2.7423 17.2,-8.55587 25.62662,-17.90334 3.89333,-4.31879 7.07878,-8.19263 7.07878,-8.60855 0,-1.7269 -11.82994,-15.04066 -16.49193,-18.5605 -2.77037,-2.09165 -8.18051,-5.27486 -12.02255,-7.07382 -13.15471,-6.15941 -31.18583,-4.88585 -43.73055,3.08874 -9.33108,5.93171 -20.75497,18.43805 -20.75497,22.72157 0,1.97399 15.03756,17.36681 20.82862,21.32069 10.01307,6.83648 26.7028,8.95735 39.46598,5.01521 z M 121.0724,285.36514 c -1.13992,-1.44917 -2.07258,-3.41348 -2.07258,-4.36514 0,-0.95166 0.93266,-2.91597 2.07258,-4.36514 4.08683,-5.19557 12.92742,-2.33936 12.92742,4.17658 0,6.73439 -8.77946,9.82697 -12.92742,4.5537 z m 40.14993,1.07816 c -2.85982,-2.0031 -3.09137,-8.34702 -0.39377,-10.78831 4.42211,-4.00196 12.17126,-0.59891 12.17126,5.34501 0,5.90935 -6.69464,9.00347 -11.77749,5.4433 z m 44.45623,-11.94697 c 4.83304,-9.02361 8.32524,-18.80668 11.42151,-31.99633 2.97168,-12.65892 3.97912,-63.18384 1.47347,-73.89697 -3.5038,-14.98077 -13.74879,-27.44315 -28.25403,-34.36923 l -7.81969,-3.7338 -32.78039,-0.31213 c -28.14116,-0.26795 -33.5838,-0.0786 -38.45728,1.3382 -19.86185,5.77399 -33.60669,21.80085 -36.37593,42.41528 -1.59777,11.89395 -0.5685,51.17853 1.59975,61.05865 3.66466,16.69881 15.59006,47 18.49741,47 0.52869,0 5.36116,-4.40466 10.73884,-9.78812 10.84245,-10.85412 17.66262,-14.91946 29.84221,-17.78823 12.49994,-2.94422 27.15609,-0.36999 40.05496,7.03531 2.68424,1.54103 8.93043,7.00911 13.88043,12.15129 4.95,5.14218 9.65158,9.24434 10.44795,9.11591 0.79637,-0.12843 3.37522,-3.83185 5.73079,-8.22983 z M 106.76242,216.5444 C 81.48683,206.86683 77.21665,173.17518 99.37575,158.26359 105.1767,154.35993 110.54243,152.8 118.16894,152.8 c 8.94166,0 15.07466,2.56104 22.28479,9.30577 3.46553,3.24183 6.63688,5.89423 7.04745,5.89423 0.41057,0 2.4433,-1.92767 4.51716,-4.2837 9.71533,-11.0372 26.38774,-14.1449 39.60696,-7.38264 23.38758,11.96385 23.49733,45.48481 0.19046,58.17 -4.25915,2.31812 -6.85394,2.95885 -13.30355,3.28502 -10.91705,0.5521 -17.91368,-2.05954 -25.29662,-9.44247 C 150.27518,205.40579 147.458,203 146.9552,203 c -0.50281,0 -2.81789,2.06527 -5.14464,4.5895 -6.45957,7.00781 -12.55637,9.70072 -22.81074,10.07535 -5.65225,0.2065 -9.75214,-0.16888 -12.2374,-1.12045 z m 19.44267,-6.09868 c 14.27858,-4.8652 21.83611,-21.91018 15.71619,-35.44572 -9.228,-20.40976 -36.5974,-21.46112 -47.47136,-1.82355 -6.84703,12.36521 -1.75194,28.96202 10.89955,35.50436 7.03331,3.63707 13.70432,4.20161 20.85562,1.76491 z m -10.24301,-9.25546 C 108.56642,198.90803 109.89499,187 117.54527,187 c 3.18158,0 7.45455,4.14543 7.45455,7.23204 0,4.6833 -4.69531,8.29826 -9.03774,6.95822 z m 69.16561,9.28184 c 16.77919,-5.71725 23.2456,-26.64936 12.56038,-40.65862 -1.79152,-2.34884 -5.45648,-5.63026 -8.14436,-7.29205 -4.38213,-2.70926 -5.72169,-3.02143 -12.96547,-3.02143 -6.94594,0 -8.70925,0.37217 -12.57842,2.65484 -9.21214,5.43483 -13.5,12.84971 -13.5,23.34516 0,5.96467 0.45616,7.81347 3.08414,12.5 6.36205,11.34557 19.54838,16.55932 31.54373,12.4721 z m -11.20066,-9.8208 c -1.33497,-0.66541 -3.00801,-2.42111 -3.71788,-3.90157 -1.08521,-2.26324 -1.04251,-3.17164 0.26819,-5.70625 4.00103,-7.73715 15.57898,-2.71298 12.82024,5.56325 -1.23697,3.71091 -5.95468,5.74719 -9.37055,4.04457 z M 68.15275,178.98889 c 0.4928,-8.6713 1.28984,-13.23528 3.25,-18.60988 1.42839,-3.91654 2.59707,-7.60792 2.59707,-8.20306 0,-0.59515 -6.49435,-4.92357 -14.43189,-9.61873 -7.93754,-4.69516 -17.15647,-11.05913 -20.48651,-14.14216 -10.32787,-9.56178 -18.13643,-23.1221 -21.13947,-36.710704 -1.33276,-6.03067 -2.42856,-7.617925 -4.10314,-5.943343 -1.71754,1.717537 -6.0609495,32.218637 -5.4109395,37.997727 0.91104,8.09989 4.4631095,17.71603 8.9765495,24.30125 4.77995,6.97408 45.93972,43.21128 48.52132,42.71834 1.27652,-0.24374 1.69751,-2.47239 2.22701,-11.78944 z m 184.19302,-7.27903 c 22.66266,-19.80895 26.13329,-23.83636 30.20298,-35.04823 3.655,-10.06939 3.89842,-15.61957 1.41449,-32.25107 -1.2248,-8.200808 -2.62508,-15.971971 -3.11174,-17.26925 -1.35481,-3.611534 -3.52675,-1.073445 -4.86532,5.685534 -1.97093,9.952016 -9.28839,23.265256 -17.70506,32.212236 -6.10513,6.48979 -10.02053,9.46898 -21.13722,16.08315 -7.50424,4.46484 -14.36028,8.92566 -15.23563,9.91293 -1.46449,1.65174 -1.3664,2.46044 1.22871,10.12994 2.19701,6.493 2.82797,10.21329 2.8552,16.8349 0.0433,10.52818 0.68326,13.20358 3.06243,12.80247 0.98675,-0.16636 11.46777,-8.75803 23.29116,-19.09261 z m 212.83904,-3.33777 c 10.07326,-5.84535 20.17526,-12.41276 22.4489,-14.59425 5.79315,-5.55836 9.55574,-13.69595 10.14581,-21.94298 0.86254,-12.0551 -1.89709,-15.84598 -4.40409,-6.04987 -1.98733,7.76546 -5.98009,14.91652 -11.71323,20.97848 -6.57939,6.95673 -9.79102,8.7592 -28.91238,16.22658 -11.38684,4.44685 -15.75,6.60287 -15.75,7.78275 0,2.19881 5.95802,8.2272 8.13116,8.2272 0.95635,0 9.98057,-4.78256 20.05383,-10.62791 z M 231.65478,136.90676 c 15.80634,-9.5109 18.92166,-11.96172 18.05981,-14.20767 -0.67202,-1.75125 -5.00317,-1.65084 -17.21477,0.3991 -11.70051,1.96415 -26.5,7.85384 -26.5,10.5461 0,1.89196 9.03645,11.34307 10.85232,11.35031 0.74378,0.003 7.40497,-3.63656 14.80264,-8.08784 z"
       sodipodi:nodetypes="cssssssscsssssscszzzsssssssssscsscsssssssssssscsssssssscsssssssssssssssssssssscsssssssssssssssssssssssssssssssssssssssscscssssssscscsssssscsssssssssscsssscssssscssccsscssssssssssssssssssssssssssssssssssscssssssssssssssssssssssssssssssssssssssssssssssssssssssssssssssssssssssssssssssssssscs" />
  </g>
</svg>
